<svg width="128" height="128" viewBox="0 0 128 128" fill="none" xmlns="http://www.w3.org/2000/svg">
<rect width="128" height="128" rx="16" fill="#EFF5F5"/>
<path d="M75.5117 74.3373C75.3314 74.1578 75.1927 73.941 75.1052 73.7022C75.0177 73.4633 74.9837 73.2081 75.0054 72.9547C75.0272 72.7012 75.1043 72.4556 75.2312 72.2351C75.3582 72.0147 75.5319 71.8248 75.7401 71.6787L72.9004 57.9314L75.9641 58.8982L78.2489 72.1977C78.471 72.5639 78.551 72.9989 78.4739 73.4202C78.3967 73.8415 78.1678 74.2198 77.8304 74.4836C77.493 74.7473 77.0706 74.8781 76.6433 74.8511C76.2159 74.8241 75.8133 74.6413 75.5117 74.3373V74.3373Z" fill="#9E616A"/>
<path d="M68.9479 37.59L70.8457 36.157C70.8457 36.157 72.5199 36.0384 72.8164 39.0584C73.113 42.0785 74.9695 53.6694 74.9695 53.6694L77.8736 67.1237L73.8536 68.0063L70.7431 53.4867L67.6294 43.4697L68.9479 37.59Z" fill="#2F2E41"/>
<path d="M58.9373 22.626C60.1644 22.626 61.1591 21.631 61.1591 20.4037C61.1591 19.1763 60.1644 18.1813 58.9373 18.1813C57.7103 18.1813 56.7156 19.1763 56.7156 20.4037C56.7156 21.631 57.7103 22.626 58.9373 22.626Z" fill="#2F2E41"/>
<path d="M62.492 31.0711C65.6005 31.0711 68.1205 28.5504 68.1205 25.4411C68.1205 22.3317 65.6005 19.811 62.492 19.811C59.3835 19.811 56.8635 22.3317 56.8635 25.4411C56.8635 28.5504 59.3835 31.0711 62.492 31.0711Z" fill="#2F2E41"/>
<path d="M59.5945 110.398H62.243L63.5035 100.179H59.5945V110.398Z" fill="#9E616A"/>
<path d="M58.7303 108.583L62.9615 108.33V110.144L66.9843 112.923C67.183 113.06 67.3326 113.257 67.4114 113.486C67.4901 113.714 67.4938 113.961 67.422 114.192C67.3501 114.423 67.2064 114.624 67.0119 114.767C66.8174 114.91 66.5823 114.988 66.3408 114.988H61.3034L60.4351 113.194L60.0961 114.988H58.1968L58.7303 108.583Z" fill="#2F2E41"/>
<path d="M43.8599 107.054L45.9852 108.635L53.0924 101.188L49.9557 98.8546L43.8599 107.054Z" fill="#9E616A"/>
<path d="M44.2488 105.082L47.7948 107.405L46.7131 108.86L48.2833 113.491C48.3609 113.72 48.3634 113.968 48.2903 114.198C48.2173 114.428 48.0726 114.629 47.8774 114.771C47.6822 114.913 47.4466 114.989 47.2052 114.988C46.9637 114.987 46.729 114.908 46.5352 114.764L42.4929 111.758L42.8662 109.8L41.5241 111.037L40 109.903L44.2488 105.082Z" fill="#2F2E41"/>
<path d="M68.2688 53.8875H58.1968V63.3696H68.2688V53.8875Z" fill="#9E616A"/>
<path d="M56.511 57.6766C56.511 57.6766 51.4859 62.0193 53.8044 74.399L56.635 86.5291L47.4038 101.848L50.3472 105.429L62.3479 88.8488L66.6966 78.6452L68.9969 60.7625L56.511 57.6766Z" fill="#2F2E41"/>
<path d="M64.2999 81.553L64.602 86.2351L63.6771 106.187L59.3246 105.429L58.4929 91.2234L64.2999 81.553Z" fill="#2F2E41"/>
<path d="M65.6503 32.6293L60.7906 32.8189L58.8536 36.0348L54.4348 36.8977L57.0728 50.2468L54.4674 59.9349L63.8292 64.033L65.9125 57.7881L68.6811 65.359L73.1263 60.5241L69.4676 51.1912L71.3603 43.8286L70.9349 36.1083L67.38 35.6639L65.6503 32.6293Z" fill="#2F2E41"/>
<path d="M62.9578 31.0696C65.4838 31.0696 67.5316 29.0213 67.5316 26.4946C67.5316 23.9679 65.4838 21.9196 62.9578 21.9196C60.4318 21.9196 58.384 23.9679 58.384 26.4946C58.384 29.0213 60.4318 31.0696 62.9578 31.0696Z" fill="#9E616A"/>
<path d="M66.0639 21.831C65.2624 21.3423 64.3444 21.0779 63.4058 21.0655C62.4673 21.0531 61.5426 21.2932 60.7285 21.7607C59.9144 22.2281 59.2409 22.9057 58.7782 23.7227C58.3156 24.5396 58.0809 25.4659 58.0986 26.4046C60.4292 26.9899 62.8776 27.4378 65.363 26.5446L65.9499 25.1077L66.296 26.5457C67.0528 26.8551 67.8117 27.117 68.5705 26.5427C68.6015 25.6066 68.3863 24.6788 67.9464 23.8519C67.5066 23.0251 66.8574 22.3282 66.0639 21.831V21.831Z" fill="#2F2E41"/>
<path d="M56.8688 14.3707C55.3324 13.6661 53.4047 13.9967 52.1255 15.1016C50.8462 16.2065 50.2381 18.0047 50.485 19.6772C50.737 21.3834 51.7739 22.8526 52.7298 24.288C53.6856 25.7234 54.6194 27.2963 54.6184 29.021C54.6176 30.2632 54.1244 31.4544 53.2468 32.3333C52.3693 33.2123 51.1791 33.7073 49.9373 33.7098C51.3948 34.3374 52.916 34.9774 54.5011 34.9029C56.0863 34.8286 57.7477 33.8093 58.0063 32.2432C58.1926 31.1148 57.6391 30.0144 57.1775 28.9681C56.4256 27.2631 55.8821 25.4736 55.5588 23.6383C55.4047 22.7624 55.3043 21.8416 55.5898 20.9993C55.8171 20.3751 56.239 19.8405 56.7931 19.4744C57.3472 19.1083 58.0043 18.9299 58.6675 18.9657L59.1912 18.4944C59.4242 16.8199 58.4051 15.0753 56.8688 14.3707Z" fill="#2F2E41"/>
<path d="M54.6278 66.1847H50.2564C50.1578 66.1845 50.0603 66.2058 49.9708 66.2472C49.8813 66.2886 49.8019 66.349 49.7382 66.4243C49.577 66.3947 49.411 66.4037 49.254 66.4507C49.0969 66.4976 48.9532 66.5812 48.8347 66.6945C48.7161 66.8077 48.6262 66.9475 48.5721 67.1023C48.5181 67.2571 48.5015 67.4226 48.5238 67.585C48.546 67.7475 48.6065 67.9024 48.7002 68.0369C48.7939 68.1715 48.9182 68.2819 49.0628 68.3591C49.2074 68.4363 49.3683 68.478 49.5322 68.481C49.6961 68.4839 49.8584 68.448 50.0057 68.376L50.5164 72.6658C50.5593 72.8055 50.6459 72.9277 50.7634 73.0145C50.8809 73.1013 51.0231 73.1482 51.1692 73.1482H54.0113C54.1574 73.1482 54.2996 73.1013 54.4171 73.0145C54.5346 72.9277 54.6211 72.8055 54.6641 72.6658L55.2806 67.0689C55.3121 66.9667 55.3191 66.8585 55.3011 66.7531C55.2832 66.6477 55.2407 66.548 55.1772 66.462C55.1137 66.376 55.0309 66.3061 54.9355 66.258C54.8401 66.2098 54.7347 66.1847 54.6278 66.1847V66.1847ZM49.5538 68.1848C49.3574 68.1848 49.169 68.1068 49.0301 67.9679C48.8912 67.8289 48.8132 67.6405 48.8132 67.444C48.8132 67.2476 48.8912 67.0592 49.0301 66.9202C49.169 66.7813 49.3574 66.7032 49.5538 66.7032C49.5673 66.7032 49.5799 66.7065 49.5933 66.7072C49.5638 66.8265 49.5674 66.9515 49.6036 67.0689L49.9164 68.0859C49.8062 68.1499 49.6812 68.184 49.5538 68.1848V68.1848Z" fill="#3DC1EB"/>
<path d="M50.9951 73.152C51.1744 72.9716 51.3121 72.7541 51.3984 72.5148C51.4846 72.2755 51.5174 72.0202 51.4943 71.7668C51.4712 71.5135 51.3929 71.2682 51.2649 71.0484C51.1368 70.8286 50.9621 70.6396 50.7531 70.4946L53.523 56.733L50.4642 57.7154L48.247 71.0263C48.0269 71.3937 47.949 71.829 48.0283 72.2499C48.1076 72.6708 48.3384 73.048 48.6772 73.3101C49.0159 73.5721 49.4389 73.7007 49.8661 73.6715C50.2933 73.6424 50.695 73.4575 50.9951 73.152H50.9951Z" fill="#9E616A"/>
<path d="M56.3327 38.3307L54.4348 36.8977C54.4348 36.8977 52.7606 36.7791 52.4641 39.7992C52.1676 42.8192 50.3111 54.4101 50.3111 54.4101L47.407 67.8644L51.427 68.747L54.5375 54.2274L57.6512 44.2104L56.3327 38.3307Z" fill="#2F2E41"/>
<rect x="20" y="66.353" width="85.2941" height="37.0588" rx="8" fill="black" fill-opacity="0.1"/>
<rect x="22.3528" y="64" width="85.2941" height="37.0588" rx="8" fill="white"/>
<path d="M45.7657 72.7591L47.2914 71.6476C47.2914 71.6476 48.6373 71.5556 48.8757 73.8982C49.114 76.2409 50.6065 85.2319 50.6065 85.2319L52.9411 95.6683L49.7094 96.353L47.2089 85.0902L44.7058 77.32L45.7657 72.7591Z" fill="#2F2E41"/>
<path d="M43.2947 68.7059L39.3182 68.8559L37.7333 71.399L34.1177 72.0814L36.2762 82.6377L34.1443 90.299L41.8045 93.5397L43.5092 88.6013L45.7746 94.5883L49.4118 90.7649L46.4181 83.3845L47.9668 77.5622L47.6187 71.4571L44.71 71.1057L43.2947 68.7059Z" fill="#2F2E41"/>
<path d="M35.9988 73.3474L34.4732 72.2358C34.4732 72.2358 33.1273 72.1438 32.8889 74.4865C32.6505 76.8291 31.1581 85.8201 31.1581 85.8201L28.8235 96.2566L32.0552 96.9412L34.5557 85.6785L37.0588 77.9083L35.9988 73.3474Z" fill="#2F2E41"/>
<rect x="58.8235" y="68.7059" width="34.1176" height="7.64706" fill="#D6E4E5"/>
<g opacity="0.6">
<rect x="58.8235" y="79.2941" width="39.4118" height="3.52941" fill="#D6E4E5"/>
<rect x="58.8235" y="84" width="37.6471" height="3.52941" fill="#D6E4E5"/>
</g>
<rect x="58.8235" y="91.0588" width="14.1176" height="5.29412" fill="#D6E4E5"/>
<g filter="url(#filter0_d_203_54)">
<circle cx="63.8235" cy="55.8235" r="3.82353" fill="white"/>
</g>
<defs>
<filter id="filter0_d_203_54" x="56" y="52" width="15.647" height="15.6471" filterUnits="userSpaceOnUse" color-interpolation-filters="sRGB">
<feFlood flood-opacity="0" result="BackgroundImageFix"/>
<feColorMatrix in="SourceAlpha" type="matrix" values="0 0 0 0 0 0 0 0 0 0 0 0 0 0 0 0 0 0 127 0" result="hardAlpha"/>
<feOffset dy="4"/>
<feGaussianBlur stdDeviation="2"/>
<feComposite in2="hardAlpha" operator="out"/>
<feColorMatrix type="matrix" values="0 0 0 0 0 0 0 0 0 0 0 0 0 0 0 0 0 0 0.25 0"/>
<feBlend mode="normal" in2="BackgroundImageFix" result="effect1_dropShadow_203_54"/>
<feBlend mode="normal" in="SourceGraphic" in2="effect1_dropShadow_203_54" result="shape"/>
</filter>
</defs>
</svg>
